<?xml version="1.0" encoding="utf-8"?>
<!-- Generator: Adobe Illustrator 16.0.0, SVG Export Plug-In . SVG Version: 6.00 Build 0)  -->
<!DOCTYPE svg PUBLIC "-//W3C//DTD SVG 1.1//EN" "http://www.w3.org/Graphics/SVG/1.1/DTD/svg11.dtd">
<svg version="1.1" id="Layer_1" xmlns="http://www.w3.org/2000/svg" xmlns:xlink="http://www.w3.org/1999/xlink" x="0px" y="0px"
	 width="600px" height="600px" viewBox="0 0 600 600" enable-background="new 0 0 600 600" xml:space="preserve">
<g id="Layer_1_1_">
	<g>
		<path d="M477.355,395.157c-5.598,0-10.136-4.537-10.136-10.136V194.105L307.808,386.68c-1.925,2.325-4.788,3.67-7.808,3.67
			c-0.006,0-0.01,0-0.016,0c-3.025-0.004-5.89-1.359-7.811-3.695L132.779,192.872V383.65c0,5.598-4.538,10.137-10.134,10.137
			c-5.598,0-10.135-4.539-10.135-10.137V164.596c0-4.279,2.687-8.097,6.715-9.54c4.03-1.446,8.531-0.203,11.247,3.102
			l169.554,206.136l169.523-204.788c2.726-3.292,7.225-4.521,11.242-3.072c4.019,1.448,6.699,5.262,6.699,9.535v219.053
			C487.49,390.62,482.952,395.157,477.355,395.157z"/>
		<g>
			<circle cx="410.637" cy="334.35" r="15.625"/>
			<path d="M410.637,360.107c-14.204,0-25.759-11.555-25.759-25.758s11.555-25.76,25.759-25.76s25.758,11.557,25.758,25.76
				C436.395,348.555,424.841,360.107,410.637,360.107z M410.637,328.859c-3.026,0-5.489,2.464-5.489,5.49s2.463,5.488,5.489,5.488
				s5.489-2.462,5.489-5.488S413.663,328.859,410.637,328.859z"/>
		</g>
		<g>
			<circle cx="184.297" cy="334.351" r="15.624"/>
			<path d="M184.297,360.107c-14.203,0-25.759-11.555-25.759-25.758s11.556-25.76,25.759-25.76s25.759,11.557,25.759,25.76
				C210.056,348.555,198.5,360.107,184.297,360.107z M184.297,328.859c-3.027,0-5.49,2.464-5.49,5.49s2.463,5.488,5.49,5.488
				c3.026,0,5.49-2.462,5.49-5.488S187.323,328.859,184.297,328.859z"/>
		</g>
		<path d="M353.207,445.54c-22.281,0-41.912-12.336-53.207-30.94c-11.294,18.604-30.926,30.94-53.207,30.94
			c-5.596,0-10.134-4.538-10.134-10.135c0-5.598,4.538-10.136,10.134-10.136c23.75,0,43.073-21.216,43.073-47.293h20.268
			c0,26.077,19.323,47.293,43.073,47.293c5.597,0,10.135,4.538,10.135,10.136C363.342,441.002,358.804,445.54,353.207,445.54z"/>
	</g>
</g>
</svg>
