<?xml version="1.0" standalone="no"?>
<!DOCTYPE svg PUBLIC "-//W3C//DTD SVG 20010904//EN"
 "http://www.w3.org/TR/2001/REC-SVG-20010904/DTD/svg10.dtd">
<svg version="1.0" xmlns="http://www.w3.org/2000/svg"
 width="700.000000pt" height="700.000000pt" viewBox="0 0 700.000000 700.000000"
 preserveAspectRatio="xMidYMid meet">
<metadata>
Created by potrace 1.14, written by Peter Selinger 2001-2017
</metadata>
<g transform="translate(0.000000,700.000000) scale(0.100000,-0.100000)"
fill="#000000" stroke="none">
<path d="M1373 5180 c-65 -39 -61 51 -61 -1380 l0 -1305 21 -32 c12 -18 32
-38 44 -44 47 -25 121 -7 150 38 17 26 18 90 23 1157 l5 1129 110 -134 c60
-74 123 -150 140 -170 16 -20 46 -55 65 -79 19 -25 51 -63 70 -86 19 -23 43
-51 53 -64 10 -12 68 -83 130 -158 61 -75 114 -139 117 -142 4 -4 89 -107 150
-184 8 -10 20 -23 25 -30 6 -6 93 -111 193 -234 100 -122 191 -232 201 -245
11 -12 56 -67 101 -122 45 -55 97 -118 115 -140 19 -22 81 -98 140 -170 59
-71 117 -141 128 -155 54 -63 84 -106 82 -120 -2 -8 -5 -30 -8 -47 -13 -82
-92 -229 -153 -284 -85 -78 -182 -125 -277 -134 -98 -10 -114 -15 -141 -44
-47 -49 -43 -122 10 -172 21 -20 35 -23 92 -23 92 1 144 11 232 45 127 49 243
138 333 256 l39 53 28 -41 c66 -98 190 -203 303 -254 113 -52 272 -76 333 -50
48 20 77 69 69 120 -11 71 -53 98 -168 109 -32 3 -67 10 -77 16 -11 6 -20 8
-20 5 0 -4 -28 9 -62 27 -122 64 -231 202 -267 338 -23 88 -22 91 69 201 47
57 132 160 188 229 57 69 111 134 121 145 9 11 40 49 70 85 29 36 70 85 91
110 21 25 149 180 286 345 136 165 322 390 413 500 91 110 173 209 182 220 10
11 34 41 55 66 22 25 55 65 75 90 20 24 75 91 123 148 47 57 96 116 108 132
l23 28 5 -1132 c5 -1112 5 -1132 25 -1159 54 -74 170 -55 204 33 6 17 10 489
10 1315 1 1416 4 1340 -59 1377 -33 20 -86 22 -116 4 -18 -10 -79 -78 -173
-192 -29 -37 -156 -189 -173 -210 -28 -34 -276 -334 -394 -476 -61 -74 -252
-305 -425 -514 -173 -209 -435 -525 -581 -702 l-267 -322 -43 52 c-57 68 -165
198 -262 317 -43 52 -85 104 -94 115 -10 11 -78 94 -152 185 -74 91 -143 174
-153 185 -11 11 -31 36 -45 55 -15 19 -29 37 -32 40 -3 3 -25 30 -50 60 -25
30 -47 57 -50 60 -3 3 -34 41 -70 85 -36 44 -132 161 -213 260 -82 99 -164
198 -182 220 -18 22 -110 135 -205 250 -95 116 -184 225 -199 243 -14 19 -33
41 -42 50 -8 9 -54 64 -101 122 -47 58 -94 113 -105 122 -30 27 -93 31 -130 8z"/>
<path d="M2055 3382 c-133 -47 -214 -168 -202 -302 10 -113 68 -199 168 -249
54 -27 69 -30 137 -28 122 5 207 59 263 170 31 59 34 165 7 235 -55 145 -228
226 -373 174z"/>
<path d="M4683 3379 c-65 -25 -136 -91 -165 -155 -17 -37 -23 -68 -23 -124 0
-125 55 -214 166 -269 54 -27 69 -30 137 -28 92 4 158 33 215 96 49 55 68 103
74 187 5 65 2 78 -26 137 -52 110 -142 169 -261 173 -45 2 -81 -4 -117 -17z"/>
</g>
</svg>
